HIERARCHY
ROOT pelvis
{
  OFFSET 0 100 0
  CHANNELS 6 Xposition Yposition Zposition Zrotation Xrotation Yrotation
  JOINT pelvis_right_femur
  {
    OFFSET -8.772758 -3.034843 2.31998
    CHANNELS 3 Zrotation Xrotation Yrotation
    JOINT right_femur_tibia
    {
      OFFSET -0.07149649 -42.08573 -1.523174
      CHANNELS 3 Zrotation Xrotation Yrotation
      JOINT right_tibia_foot
      {
        OFFSET -0.2003081 -41.61072 -0.8970074
        CHANNELS 3 Zrotation Xrotation Yrotation
        End Site
        {
          OFFSET 0 -2 15
        }
      }
    }
  }
  JOINT pelvis_left_femur
  {
    OFFSET 8.772758 -3.034843 2.31998
    CHANNELS 3 Zrotation Xrotation Yrotation
    JOINT left_femur_tibia
    {
      OFFSET 0.07149649 -42.08573 -1.523174
      CHANNELS 3 Zrotation Xrotation Yrotation
      JOINT left_tibia_foot
      {
        OFFSET 0.6066951 -40.61457 0.3589064
        CHANNELS 3 Zrotation Xrotation Yrotation
        End Site
        {
          OFFSET 0 -2 15
        }
      }
    }
  }
  JOINT pelvis_spine1
  {
    OFFSET 0 4.18052 -1.820256
    CHANNELS 3 Zrotation Xrotation Yrotation
    JOINT spine1
    {
      OFFSET 0 24.76252 -1.604816
      CHANNELS 3 Zrotation Xrotation Yrotation
      JOINT spine2
      {
        OFFSET 0 23.17647 -1.034129
        CHANNELS 3 Zrotation Xrotation Yrotation
        JOINT neck
        {
          OFFSET 0 5.306618 0.6401983
          CHANNELS 3 Zrotation Xrotation Yrotation
          End Site
          {
            OFFSET 0 20 0
          }
        }
      }
      JOINT right_manubrium
      {
        OFFSET -2.73992 17.95577 1
        CHANNELS 3 Zrotation Xrotation Yrotation
        JOINT right_clavicle
        {
          OFFSET -12.52213 3 -1.062945
          CHANNELS 3 Zrotation Xrotation Yrotation
          JOINT right_humerus
          {
            OFFSET -27.37371 -1.703709 -1.750656
            CHANNELS 3 Zrotation Xrotation Yrotation
            JOINT right_radius
            {
              OFFSET -22.33414 -1.281607 3.697082
              CHANNELS 3 Zrotation Xrotation Yrotation
              End Site
              {
                OFFSET -15 0 0
              }
            }
          }
        }
      }
      JOINT left_manubrium
      {
        OFFSET 2.73992 17.95577 1
        CHANNELS 3 Zrotation Xrotation Yrotation
        JOINT left_clavicle
        {
          OFFSET 12.52213 3 -1.062945
          CHANNELS 3 Zrotation Xrotation Yrotation
          JOINT left_humerus
          {
            OFFSET 27.5036 -1.031355 -0.7678377
            CHANNELS 3 Zrotation Xrotation Yrotation
            JOINT left_radius
            {
              OFFSET 21.64259 -1.57069 3.651522
              CHANNELS 3 Zrotation Xrotation Yrotation
              End Site
              {
                OFFSET 15 0 0
              }
            }
          }
        }
      }
    }
  }
}
MOTION
Frames:	13
Frame Time:	0.008333333333333333
117.6115 88.17348 -32.27161 2.075256 2.106563 -74.12118 -4.283766 4.314561 -8.859669 -0 -3.927607 -0 4.621879 -2.3301 -20.22959 11.55028 -10.71871 3.495574 -0 9.033059 -0 -1.142429 2.922633 -4.779836 0.2225074 -0.3869982 6.792284 0.572084 8.979979 -0.7325536 -7.359053 26.12249 -2.271782 18.7893 -58.21315 2.717426 28.20061 5.308307 4.481596 3.539667 49.5225 52.44657 -0 0 25.03945 6.277747 43.42954 0.6366648 -32.45267 -5.619697 -1.56891 -46.31447 7.277682 2.625329 -0 0 -4.303335 -16.13785 -9.269329 -13.00859
117.6339 88.19627 -32.31487 2.069082 2.096944 -74.13047 -4.292493 4.300364 -8.852273 -0 -3.932724 -0 4.61804 -2.343098 -20.22444 11.56532 -10.72535 3.508512 -0 8.949975 -0 -1.143509 2.920911 -4.788677 0.2308714 -0.3762928 6.79131 0.570405 9.004163 -0.7400054 -7.35851 26.13709 -2.279066 18.77374 -58.20206 2.697826 28.21433 5.291471 4.475615 3.551779 49.50381 52.44326 -0 0 25.06071 6.26805 43.42933 0.6491583 -32.47289 -5.597768 -1.543262 -46.33046 7.285112 2.656853 -0 0 -4.290186 -16.14998 -9.265464 -13.00378
117.6276 88.15985 -32.28236 2.081603 2.107253 -74.13603 -4.307012 4.28974 -8.842902 -0 -3.935349 -0 4.612958 -2.359363 -20.21945 11.54961 -10.67864 3.529018 -0 8.802355 -0 -1.145205 2.913346 -4.805158 0.2817219 -0.3943784 6.813925 0.5735797 9.008937 -0.7296479 -7.354427 26.15902 -2.292073 18.74986 -58.18215 2.66596 28.20846 5.262685 4.485223 3.545314 49.47086 52.44746 -0 0 25.09148 6.254043 43.43142 0.6723097 -32.49055 -5.580931 -1.507392 -46.32949 7.291804 2.691963 -0 0 -4.27526 -16.16519 -9.258458 -12.99885
117.659 88.16442 -32.25223 2.1002 2.112836 -74.12239 -4.314728 4.266644 -8.832081 -0 -3.940963 -0 4.608059 -2.377849 -20.21452 11.54575 -10.59886 3.569677 -0 8.584674 -0 -1.147921 2.90153 -4.829435 0.3156067 -0.4121017 6.841527 0.555656 8.999076 -0.7179868 -7.347955 26.1927 -2.311209 18.71479 -58.15164 2.61875 28.2025 5.233308 4.512343 3.525936 49.43483 52.46391 -0 0 25.12987 6.238246 43.43556 0.7038561 -32.53355 -5.592918 -1.504036 -46.3145 7.298149 2.694038 -0 0 -4.26432 -16.18344 -9.24721 -12.99646
117.6253 88.15824 -32.28372 2.128929 2.132086 -74.09447 -4.286332 4.252966 -8.824852 -0 -3.941994 -0 4.602803 -2.400017 -20.20995 11.57288 -10.49262 3.626717 -0 8.323174 -0 -1.151003 2.885886 -4.858642 0.3274467 -0.447432 6.865514 0.5659602 8.984651 -0.7099119 -7.345007 26.22993 -2.33589 18.66486 -58.1158 2.555474 28.25711 5.170306 4.553712 3.525178 49.35895 52.4784 -0 0 25.14765 6.228556 43.43152 0.7189829 -32.58042 -5.581611 -1.482365 -46.30891 7.315408 2.724465 -0 0 -4.228796 -16.21195 -9.232829 -12.98701
117.6076 88.1275 -32.30537 2.131279 2.157893 -74.1149 -4.25086 4.244249 -8.816746 -0 -3.941122 -0 4.59708 -2.425041 -20.20421 11.6012 -10.34911 3.690861 -0 8.020718 -0 -1.154583 2.864879 -4.891069 0.3620469 -0.5012779 6.855579 0.5954146 8.991654 -0.740141 -7.346012 26.27529 -2.362342 18.60212 -58.07038 2.480563 28.31528 5.117536 4.551168 3.558221 49.29171 52.45599 -0 0 25.17644 6.213798 43.42758 0.7425418 -32.61324 -5.548565 -1.44083 -46.31307 7.341635 2.781191 -0 0 -4.178822 -16.25227 -9.214287 -12.97313
117.5868 88.11156 -32.31195 2.159422 2.164471 -74.14226 -4.23627 4.225344 -8.804401 -0 -3.943548 -0 4.591329 -2.45294 -20.19712 11.63889 -10.15872 3.767568 -0 7.662155 -0 -1.15865 2.837556 -4.925564 0.4309927 -0.5645556 6.842883 0.6299204 8.984809 -0.7767722 -7.348536 26.32807 -2.391709 18.52836 -58.01559 2.394136 28.35346 5.040288 4.56051 3.571224 49.20012 52.44021 -0 0 25.20952 6.195919 43.42371 0.7730453 -32.64338 -5.49802 -1.389935 -46.33526 7.37765 2.855744 -0 0 -4.116268 -16.30603 -9.19072 -12.95704
117.568 88.06285 -32.25252 2.194817 2.199635 -74.17742 -4.235233 4.203256 -8.791267 -0 -3.945289 -0 4.585383 -2.48345 -20.19137 11.65499 -9.932733 3.844672 -0 7.274212 -0 -1.162592 2.806406 -4.961358 0.4929957 -0.6422049 6.84695 0.6693167 8.979078 -0.7953579 -7.333692 26.37534 -2.419361 18.47753 -57.95647 2.324722 28.40145 4.982454 4.575646 3.583167 49.12375 52.41615 -0 0 25.22439 6.176143 43.41787 0.8038989 -32.69655 -5.433145 -1.334781 -46.39156 7.422171 2.945368 -0 0 -4.047507 -16.37165 -9.163953 -12.93533
117.5273 88.03537 -32.20735 2.212312 2.238996 -74.19406 -4.222795 4.199735 -8.776718 -0 -3.931639 -0 4.580329 -2.514118 -20.18447 11.67264 -9.713758 3.938751 -0 6.84383 -0 -1.167157 2.786253 -4.995313 0.5037655 -0.6992989 6.877415 0.7132075 8.993811 -0.7839806 -7.309252 26.41711 -2.443874 18.44329 -57.89593 2.269702 28.47832 4.947015 4.607813 3.597048 49.06347 52.39481 -0 0 25.22035 6.15432 43.40999 0.8341792 -32.754 -5.351525 -1.274516 -46.46255 7.474852 3.052543 -0 0 -3.970424 -16.44775 -9.133753 -12.90752
117.5259 88.01824 -32.21765 2.223681 2.238296 -74.26952 -4.217022 4.174951 -8.755965 -0 -3.918396 -0 4.576952 -2.544244 -20.17484 11.69908 -9.460327 4.046557 -0 6.387804 -0 -1.172312 2.764361 -5.028259 0.5308272 -0.7776125 6.841547 0.7761255 8.996033 -0.8410016 -7.28671 26.46822 -2.464269 18.4078 -57.82571 2.215625 28.55546 4.907742 4.589462 3.642527 48.99885 52.32471 -0 0 25.21474 6.127744 43.40025 0.8680573 -32.79596 -5.291713 -1.245856 -46.50131 7.528833 3.129773 -0 0 -3.897483 -16.52792 -9.099685 -12.88335
117.5149 88.0058 -32.13897 2.246941 2.277319 -74.29378 -4.222927 4.149706 -8.732938 -0 -3.898515 -0 4.575112 -2.572233 -20.16519 11.7185 -9.194554 4.162024 -0 5.904485 -0 -1.178757 2.742385 -5.061786 0.529441 -0.8320092 6.868964 0.8310512 9.003955 -0.8306853 -7.248212 26.50856 -2.482662 18.39889 -57.75897 2.182138 28.64965 4.875794 4.632368 3.650197 48.93701 52.292 -0 0 25.18096 6.102485 43.38812 0.9000363 -32.87557 -5.206661 -1.208451 -46.58682 7.592739 3.233464 -0 0 -3.803507 -16.62252 -9.062281 -12.85231
117.4834 88.00648 -32.12792 2.277258 2.298477 -74.31932 -4.222128 4.117113 -8.708967 -0 -3.87511 -0 4.574359 -2.59898 -20.15446 11.74692 -8.914062 4.284032 -0 5.401453 -0 -1.186239 2.721629 -5.096857 0.5081816 -0.9099647 6.874138 0.8944418 8.99713 -0.8389175 -7.211794 26.5469 -2.500549 18.38987 -57.6928 2.148414 28.75357 4.846134 4.666157 3.664807 48.87522 52.24844 -0 0 25.14236 6.077256 43.37442 0.9336916 -32.94148 -5.130355 -1.184964 -46.64962 7.656827 3.325688 -0 0 -3.711701 -16.72086 -9.021933 -12.82528
117.4705 87.99058 -32.0892 2.311194 2.316132 -74.36414 -4.236905 4.07094 -8.67816 -0 -3.848075 -0 4.575046 -2.623837 -20.14047 11.76152 -8.607096 4.412819 -0 4.888047 -0 -1.194306 2.700303 -5.13139 0.500743 -0.9877492 6.862935 0.978521 8.972912 -0.8637297 -7.178682 26.5835 -2.5133 18.38435 -57.62495 2.120805 28.85017 4.811565 4.695754 3.675739 48.80746 52.19459 -0 0 25.09641 6.051173 43.35937 0.9682845 -32.98462 -5.059933 -1.176264 -46.70067 7.723597 3.406806 -0 0 -3.619033 -16.8251 -8.978854 -12.80085
